<svg width="196" height="74" viewBox="0 0 196 74" fill="none" xmlns="http://www.w3.org/2000/svg">
<path fill-rule="evenodd" clip-rule="evenodd" d="M148.936 15.0412C147.831 15.0412 146.936 14.1458 146.936 13.0412V2.4812C146.936 1.37663 147.831 0.481201 148.936 0.481201H193.576C194.681 0.481201 195.576 1.37663 195.576 2.4812V13.0412C195.576 14.1458 194.681 15.0412 193.576 15.0412H180.024V71.1212C180.024 72.2258 179.129 73.1212 178.024 73.1212H164.488C163.383 73.1212 162.488 72.2258 162.488 71.1212V15.0412H148.936ZM164.488 13.0412V71.1212H178.024V13.0412H193.576V2.4812H148.936V13.0412H164.488Z" fill="#0EF9FE"/>
<path fill-rule="evenodd" clip-rule="evenodd" d="M112.444 46.8385V47.1954L95.963 3.18256C95.733 2.56841 95.8187 1.88054 96.1924 1.34162C96.566 0.802699 97.1802 0.481201 97.8359 0.481201H112.14C113.007 0.481201 113.775 1.03933 114.042 1.86359L121.057 23.4695L129.179 1.77984C129.471 0.998771 130.218 0.481201 131.052 0.481201H143.052C143.707 0.481201 144.321 0.802045 144.694 1.34006C145.068 1.87808 145.155 2.56505 144.926 3.179L128.54 47.1934V71.1212C128.54 72.2258 127.645 73.1212 126.54 73.1212H114.444C113.339 73.1212 112.444 72.2258 112.444 71.1212V47.1954M131.052 2.4812H143.052L126.54 46.8332V71.1212H114.444V46.8332L97.8359 2.4812H112.14L120.923 29.5318L131.052 2.4812Z" fill="#0EF9FE"/>
<path fill-rule="evenodd" clip-rule="evenodd" d="M61.8905 31.5692H77.7305V2.4812H91.2665V71.1212H77.7305V42.1292H61.8905V71.1212H48.3545V2.4812H61.8905V31.5692ZM63.8905 44.1292V71.1212C63.8905 72.2258 62.9951 73.1212 61.8905 73.1212H48.3545C47.2499 73.1212 46.3545 72.2258 46.3545 71.1212V2.4812C46.3545 1.37663 47.2499 0.481201 48.3545 0.481201H61.8905C62.9951 0.481201 63.8905 1.37663 63.8905 2.4812V29.5692H75.7305V2.4812C75.7305 1.37663 76.6259 0.481201 77.7305 0.481201H91.2665C92.3711 0.481201 93.2665 1.37663 93.2665 2.4812V71.1212C93.2665 72.2258 92.3711 73.1212 91.2665 73.1212H77.7305C76.6259 73.1212 75.7305 72.2258 75.7305 71.1212V44.1292H63.8905Z" fill="#0EF9FE"/>
<path fill-rule="evenodd" clip-rule="evenodd" d="M20.3292 2.4812C20.975 2.48326 21.6097 2.50622 22.2332 2.54979C22.2652 2.55203 22.2972 2.55432 22.3292 2.55667C25.5842 2.79569 28.5336 3.60254 31.1772 4.9772C34.4412 6.6412 37.0012 8.9452 38.8572 11.8892C40.3734 14.2943 41.2703 16.9556 41.5479 19.8732C41.6101 20.527 41.6412 21.1937 41.6412 21.8732V27.2492C41.6384 27.8956 41.6071 28.5302 41.5479 29.1532C41.5448 29.1852 41.5417 29.2172 41.5385 29.2492C41.2505 32.1292 40.3568 34.7585 38.8572 37.1372C37.0012 40.0812 34.4412 42.3852 31.1772 44.0492C28.5336 45.4239 25.5842 46.2307 22.3292 46.4697C22.2972 46.4721 22.2652 46.4744 22.2332 46.4766C21.6097 46.5202 20.975 46.543 20.3292 46.5451L15.5292 46.5452V71.1212H1.99316V2.4812H20.3292ZM17.5292 48.5452V71.1212C17.5292 72.2258 16.6337 73.1212 15.5292 73.1212H1.99316C0.888595 73.1212 -0.00683594 72.2258 -0.00683594 71.1212V2.4812C-0.00683594 1.37663 0.888595 0.481201 1.99316 0.481201H20.3292C20.34 0.481201 20.3507 0.481287 20.3615 0.481457C24.6812 0.498713 28.6073 1.38824 32.0927 3.19903C35.6565 5.01733 38.4921 7.55988 40.549 10.8226C42.6199 14.1074 43.6412 17.81 43.6412 21.8732V27.2492C43.6412 27.2623 43.641 27.2754 43.6408 27.2885C43.6183 31.2986 42.5969 34.9555 40.549 38.2038C38.4921 41.4665 35.6565 44.0091 32.0927 45.8274C28.6073 47.6382 24.6812 48.5277 20.3615 48.5449C20.3507 48.5451 20.34 48.5452 20.3292 48.5452H17.5292ZM20.2332 35.9852C20.2653 35.9852 20.2973 35.9851 20.3292 35.9848C21.0357 35.9789 21.6986 35.9074 22.3178 35.7704C23.79 35.4446 25.0151 34.7482 25.9932 33.6812C27.0235 32.5104 27.6768 31.0312 27.9532 29.2435C28.0501 28.6167 28.1007 27.9519 28.1049 27.2492C28.1051 27.2173 28.1052 27.1853 28.1052 27.1532V21.8732C28.1052 21.1678 28.061 20.5026 27.9726 19.8775C27.7083 18.0072 27.0485 16.4964 25.9932 15.3452C25.0151 14.2782 23.79 13.5818 22.3178 13.256C21.6986 13.119 21.0357 13.0475 20.3292 13.0416C20.2973 13.0413 20.2653 13.0412 20.2332 13.0412H15.5292V35.9852H20.2332ZM20.2332 33.9852C22.1978 33.9852 23.5411 33.3882 24.5051 32.3446C25.4994 31.2063 26.1052 29.5533 26.1052 27.1532V21.8732C26.1052 19.3791 25.4849 17.7505 24.5189 16.6967C23.5539 15.6439 22.2072 15.0412 20.2332 15.0412H17.5292V33.9852H20.2332Z" fill="#0EF9FE"/>
</svg>
